PathFileType	4	(x/y/z)	S09_SL_Cal_T01
DataRate	CameraRate	NumFrames	NumMarkers	Units	OrigDataRate	OrigDataStartFrame	OrigNumFrames
240	240	5	51	mm	240	2101	2400
Frame#	Time	Sternum			R.Acromium			L.Acromium			Top.Head			R.ASIS			L.ASIS			R.PSIS			L.PSIS			R.Great.Tro			L.Great.Tro			R.Iliac.Crest			L.Iliac.Crest			V.Sacral			R.Thigh.Upper.Post			R.Thigh.Lower.Ant			R.Thigh.Lower.Post			R.Thigh.Upper.Ant			R.Knee.Lat			R.Knee.Med			R.Shank.Upper.Post			R.Shank.Lower.Ant			R.Shank.Lower.Post			R.Shank.Upper.Ant			R.Ankle.Lat			R.Ankle.Med			R.Heel.Upper			R.Heel.Med			R.Heel.Lat			R.Toe.Lat			R.Toe.Med			R.Toe.Tip			L.Thigh.Upper.Post			L.Thigh.Lower.Ant			L.Thigh.Lower.Post			L.Thigh.Upper.Ant			L.Knee.Lat			L.Knee.Med			L.Shank.Upper.Post			L.Shank.Lower.Ant			L.Shank.Lower.Post			L.Shank.Upper.Ant			L.Ankle.Lat			L.Ankle.Med			L.Heel.Upper			L.Heel.Med			L.Heel.Lat			L.Toe.Lat			L.Toe.Med			L.Toe.Tip			Cervical.Spine			Back			
		X1	Y1	Z1	X2	Y2	Z2	X3	Y3	Z3	X4	Y4	Z4	X5	Y5	Z5	X6	Y6	Z6	X7	Y7	Z7	X8	Y8	Z8	X9	Y9	Z9	X10	Y10	Z10	X11	Y11	Z11	X12	Y12	Z12	X13	Y13	Z13	X14	Y14	Z14	X15	Y15	Z15	X16	Y16	Z16	X17	Y17	Z17	X18	Y18	Z18	X19	Y19	Z19	X20	Y20	Z20	X21	Y21	Z21	X22	Y22	Z22	X23	Y23	Z23	X24	Y24	Z24	X25	Y25	Z25	X26	Y26	Z26	X27	Y27	Z27	X28	Y28	Z28	X29	Y29	Z29	X30	Y30	Z30	X31	Y31	Z31	X32	Y32	Z32	X33	Y33	Z33	X34	Y34	Z34	X35	Y35	Z35	X36	Y36	Z36	X37	Y37	Z37	X38	Y38	Z38	X39	Y39	Z39	X40	Y40	Z40	X41	Y41	Z41	X42	Y42	Z42	X43	Y43	Z43	X44	Y44	Z44	X45	Y45	Z45	X46	Y46	Z46	X47	Y47	Z47	X48	Y48	Z48	X49	Y49	Z49	X50	Y50	Z50	X51	Y51	Z51	

2101	8.75	592	1198.8	294.78	463.96	1454.4	445.94	461.4	1448.9	130.93	530.05	1748.6	291.05	553.56	1034.5	402.6	539.51	1031.3	155.95	330.95	1062.8	336.37	332.09	1063.7	246.78	470.27	951.53	477.86	456.9	946.79	94.336	464.32	1114.8	450.69	431.18	1126.7	125.88	311.5	1028.8	289.78	434.53	710.14	468	485.42	598.01	428.41	411.99	620.1	448.04	500.14	685.67	450.67	448.92	525.7	422.1	426.91	511.35	304.54	367.08	354.72	441.39	435.04	294.83	426.78	363.74	278.57	431.73	431.71	368.23	437.9	393.03	94.234	411.22	423.43	105.45	328.11	331.81	77.136	360.9	343.05	45.174	332.45	334.22	47.387	397.24	492.85	39.789	453.77	542.7	45.372	347.88	589.34	59.602	395.38	371.69	703.05	123.9	438.88	596.43	114.24	377.83	614.05	127.63	437.81	684.81	98.662	416.97	516.61	120.31	428.69	515.2	255.77	368.59	383.74	103.13	434.42	295.53	114.17	371.28	306.56	106.72	431.11	373.59	111.4	404.72	106.49	126.8	418.28	96.676	218.15	335.34	70.517	173.31	346.25	46.196	206.75	337.77	42.793	145.28	512.42	43.749	95.905	546.24	43.499	205.4	599.53	60.277	149.04	393.76	1501.9	300.03	329.86	1244	286.88
2102	8.7542	592	1198.8	294.78	463.96	1454.4	445.94	461.4	1448.9	130.93	530.04	1748.6	291.06	553.55	1034.5	402.59	539.5	1031.3	155.95	330.94	1062.8	336.37	332.08	1063.7	246.78	470.26	951.53	477.86	456.88	946.79	94.333	464.32	1114.8	450.69	431.17	1126.7	125.88	311.49	1028.8	289.78	434.52	710.14	468	485.41	598.01	428.41	411.98	620.1	448.04	500.12	685.67	450.67	448.91	525.69	422.1	426.9	511.36	304.54	367.07	354.72	441.39	435.03	294.83	426.78	363.73	278.56	431.73	431.7	368.23	437.9	393.03	94.233	411.22	423.43	105.45	328.11	331.81	77.136	360.9	343.04	45.172	332.45	334.22	47.387	397.24	492.85	39.788	453.77	542.7	45.372	347.88	589.34	59.603	395.38	371.68	703.05	123.9	438.87	596.43	114.24	377.82	614.05	127.63	437.8	684.81	98.66	416.96	516.61	120.3	428.68	515.2	255.76	368.58	383.74	103.13	434.41	295.53	114.17	371.28	306.56	106.72	431.1	373.59	111.39	404.72	106.49	126.79	418.28	96.677	218.15	335.34	70.517	173.31	346.25	46.192	206.75	337.77	42.792	145.28	512.42	43.749	95.905	546.24	43.499	205.4	599.53	60.277	149.04	393.77	1501.9	300.04	329.85	1244	286.88
2103	8.7583	591.99	1198.8	294.77	463.97	1454.4	445.95	461.39	1448.9	130.94	530.04	1748.6	291.06	553.55	1034.5	402.59	539.49	1031.3	155.95	330.93	1062.8	336.37	332.08	1063.7	246.78	470.26	951.53	477.85	456.87	946.79	94.33	464.31	1114.8	450.68	431.16	1126.7	125.88	311.48	1028.8	289.78	434.51	710.14	468	485.39	598.01	428.41	411.96	620.1	448.04	500.11	685.66	450.67	448.89	525.69	422.1	426.89	511.36	304.54	367.06	354.72	441.39	435.02	294.83	426.78	363.72	278.56	431.73	431.69	368.23	437.9	393.03	94.233	411.22	423.43	105.45	328.11	331.81	77.136	360.9	343.04	45.169	332.45	334.22	47.387	397.24	492.85	39.787	453.77	542.71	45.373	347.88	589.34	59.604	395.38	371.67	703.05	123.9	438.86	596.43	114.24	377.8	614.05	127.63	437.79	684.82	98.659	416.95	516.61	120.3	428.67	515.2	255.76	368.58	383.74	103.13	434.41	295.53	114.17	371.27	306.56	106.71	431.09	373.6	111.39	404.72	106.49	126.79	418.27	96.678	218.15	335.34	70.516	173.31	346.25	46.188	206.75	337.77	42.792	145.28	512.42	43.75	95.905	546.24	43.499	205.4	599.53	60.278	149.04	393.77	1501.9	300.04	329.85	1244	286.88
2104	8.7625	591.99	1198.8	294.76	463.97	1454.4	445.95	461.39	1448.9	130.94	530.03	1748.6	291.07	553.54	1034.5	402.58	539.48	1031.3	155.94	330.92	1062.8	336.36	332.07	1063.7	246.78	470.25	951.53	477.85	456.86	946.79	94.328	464.31	1114.8	450.68	431.15	1126.7	125.88	311.47	1028.8	289.78	434.49	710.14	468	485.38	598.01	428.41	411.95	620.1	448.04	500.1	685.66	450.67	448.88	525.69	422.1	426.89	511.37	304.54	367.05	354.72	441.39	435.01	294.83	426.78	363.72	278.56	431.73	431.68	368.23	437.9	393.02	94.233	411.22	423.43	105.45	328.11	331.81	77.135	360.9	343.04	45.167	332.45	334.22	47.388	397.24	492.85	39.785	453.77	542.71	45.373	347.88	589.34	59.605	395.38	371.66	703.05	123.89	438.85	596.43	114.23	377.79	614.05	127.63	437.78	684.82	98.657	416.94	516.62	120.29	428.67	515.2	255.76	368.57	383.74	103.13	434.4	295.53	114.17	371.26	306.56	106.71	431.08	373.6	111.39	404.72	106.49	126.79	418.27	96.68	218.15	335.34	70.516	173.31	346.25	46.183	206.75	337.77	42.791	145.28	512.42	43.751	95.904	546.24	43.5	205.4	599.53	60.278	149.04	393.77	1501.9	300.05	329.85	1244	286.89
2105	8.7667	591.98	1198.8	294.76	463.98	1454.4	445.95	461.39	1448.9	130.94	530.03	1748.6	291.08	553.53	1034.5	402.58	539.47	1031.3	155.94	330.91	1062.8	336.36	332.06	1063.7	246.78	470.24	951.53	477.85	456.85	946.79	94.325	464.3	1114.8	450.68	431.15	1126.7	125.88	311.46	1028.8	289.78	434.48	710.13	468	485.36	598.01	428.41	411.94	620.1	448.03	500.08	685.66	450.67	448.86	525.69	422.1	426.88	511.37	304.54	367.04	354.72	441.39	435	294.83	426.78	363.71	278.56	431.73	431.67	368.23	437.9	393.02	94.232	411.22	423.43	105.45	328.11	331.81	77.135	360.9	343.04	45.164	332.45	334.22	47.388	397.24	492.85	39.784	453.77	542.71	45.373	347.88	589.34	59.606	395.38	371.64	703.06	123.89	438.83	596.43	114.23	377.78	614.05	127.63	437.76	684.82	98.655	416.93	516.62	120.29	428.66	515.2	255.75	368.56	383.74	103.13	434.4	295.53	114.16	371.26	306.55	106.71	431.08	373.6	111.39	404.72	106.49	126.79	418.27	96.682	218.16	335.34	70.516	173.31	346.25	46.179	206.75	337.77	42.791	145.28	512.42	43.751	95.904	546.24	43.5	205.4	599.53	60.278	149.04	393.78	1501.9	300.05	329.84	1244	286.89
